<svg 
  viewBox="0 0 120 120" 
  fill="none" 
  xmlns="http://www.w3.org/2000/svg"
>
  <defs>
    <linearGradient id="fav-gold" x1="0%" y1="0%" x2="100%" y2="100%">
      <stop offset="0%" stop-color="#FFE082" />
      <stop offset="50%" stop-color="#D4AF37" />
      <stop offset="100%" stop-color="#B8960F" />
    </linearGradient>
  </defs>
  
  {/* Elegant circular border */}
  <circle cx="60" cy="60" r="56" stroke="url(#fav-gold)" stroke-width="2" />
  
  {/* Silhouette Group */}
  <g transform="translate(10, 8) scale(0.85)">
    {/* Woman Profile (Facing Left) */}
    <path 
      d="M51.5 35C43.5 35 38.8 39.7 37.5 47C36.1 54.3 38.1 57.7 39.5 62.3C40.8 67 37.5 71.7 39.5 75.7C41.5 79.7 45.5 79 48.1 75.7C50.8 72.3 50.1 68.3 49.5 65.7C52.1 63 54.8 60 54.8 53.7C54.8 43 54.8 35 51.5 35Z" 
      fill="url(#fav-gold)" 
    />
    
    {/* Man Profile (Facing Right) */}
    <path 
      d="M68.5 38C74.5 38 79.2 42.3 80.5 49C81.8 55.7 78.5 58.3 77.8 63C77.1 67.7 79.8 72 77.8 75.7C75.8 79.3 71.8 78.7 69.8 75.7C67.8 72.7 67.8 69 69.1 66C66.7 63.6 64 60.3 64 54.9C64 45.6 64.5 38 68.5 38Z" 
      fill="url(#fav-gold)" 
    />
  </g>

  {/* Sparkle */}
  <path d="M60 22l0.8 2 2 0.8-2 0.8-0.8 2-0.8-2-2-0.8 2-0.8z" fill="url(#fav-gold)" />
</svg>
